<svg width="162" height="60" viewBox="0 0 162 60" fill="none" xmlns="http://www.w3.org/2000/svg">
<path fill-rule="evenodd" clip-rule="evenodd" d="M64.282 11.108C65.2153 11.108 65.955 11.3787 66.501 11.92C67.047 12.4613 67.32 13.264 67.32 14.328V18.598H65.976V14.482C65.976 13.7633 65.8103 13.222 65.479 12.858C65.1477 12.494 64.674 12.312 64.058 12.312C63.3767 12.312 62.8353 12.5243 62.434 12.949C62.0327 13.3737 61.832 13.9827 61.832 14.776V18.598H60.488V14.482C60.488 13.7633 60.3223 13.222 59.991 12.858C59.6597 12.494 59.186 12.312 58.57 12.312C57.8887 12.312 57.3473 12.5243 56.946 12.949C56.5447 13.3737 56.344 13.9827 56.344 14.776V18.598H55V11.178H56.288V12.284C56.5587 11.9013 56.9133 11.6097 57.352 11.409C57.7907 11.2083 58.29 11.108 58.85 11.108C59.4287 11.108 59.942 11.2247 60.39 11.458C60.838 11.6913 61.1833 12.032 61.426 12.48C61.706 12.0507 62.0957 11.7147 62.595 11.472C63.0943 11.2293 63.6567 11.108 64.282 11.108ZM69.798 11.178H71.142V18.598H69.798V11.178ZM70.47 9.75C70.2087 9.75 69.9917 9.666 69.819 9.498C69.6463 9.33 69.56 9.12467 69.56 8.882C69.56 8.63933 69.6463 8.43167 69.819 8.259C69.9917 8.08633 70.2087 8 70.47 8C70.7313 8 70.9483 8.08167 71.121 8.245C71.2937 8.40833 71.38 8.61133 71.38 8.854C71.38 9.106 71.2937 9.31833 71.121 9.491C70.9483 9.66367 70.7313 9.75 70.47 9.75ZM77.666 11.108C78.6087 11.108 79.3577 11.381 79.913 11.927C80.4683 12.473 80.746 13.2733 80.746 14.328V18.598H79.402V14.482C79.402 13.7633 79.2293 13.222 78.884 12.858C78.5387 12.494 78.044 12.312 77.4 12.312C76.672 12.312 76.098 12.5243 75.678 12.949C75.258 13.3737 75.048 13.9827 75.048 14.776V18.598H73.704V11.178H74.992V12.298C75.2627 11.9153 75.629 11.6213 76.091 11.416C76.553 11.2107 77.078 11.108 77.666 11.108ZM83.238 11.178H84.582V18.598H83.238V11.178ZM83.91 9.75C83.6487 9.75 83.4317 9.666 83.259 9.498C83.0863 9.33 83 9.12467 83 8.882C83 8.63933 83.0863 8.43167 83.259 8.259C83.4317 8.08633 83.6487 8 83.91 8C84.1713 8 84.3883 8.08167 84.561 8.245C84.7337 8.40833 84.82 8.61133 84.82 8.854C84.82 9.106 84.7337 9.31833 84.561 9.491C84.3883 9.66367 84.1713 9.75 83.91 9.75ZM96.426 11.108C97.3593 11.108 98.099 11.3787 98.645 11.92C99.191 12.4613 99.464 13.264 99.464 14.328V18.598H98.12V14.482C98.12 13.7633 97.9543 13.222 97.623 12.858C97.2917 12.494 96.818 12.312 96.202 12.312C95.5207 12.312 94.9793 12.5243 94.578 12.949C94.1767 13.3737 93.976 13.9827 93.976 14.776V18.598H92.632V14.482C92.632 13.7633 92.4663 13.222 92.135 12.858C91.8037 12.494 91.33 12.312 90.714 12.312C90.0327 12.312 89.4913 12.5243 89.09 12.949C88.6887 13.3737 88.488 13.9827 88.488 14.776V18.598H87.144V11.178H88.432V12.284C88.7027 11.9013 89.0573 11.6097 89.496 11.409C89.9347 11.2083 90.434 11.108 90.994 11.108C91.5727 11.108 92.086 11.2247 92.534 11.458C92.982 11.6913 93.3273 12.032 93.57 12.48C93.85 12.0507 94.2397 11.7147 94.739 11.472C95.2383 11.2293 95.8007 11.108 96.426 11.108ZM104.644 11.108C105.671 11.108 106.457 11.36 107.003 11.864C107.549 12.368 107.822 13.1193 107.822 14.118V18.598H106.548V17.618C106.324 17.9633 106.004 18.227 105.589 18.409C105.174 18.591 104.681 18.682 104.112 18.682C103.281 18.682 102.616 18.4813 102.117 18.08C101.618 17.6787 101.368 17.1513 101.368 16.498C101.368 15.8447 101.606 15.3197 102.082 14.923C102.558 14.5263 103.314 14.328 104.35 14.328H106.478V14.062C106.478 13.4833 106.31 13.04 105.974 12.732C105.638 12.424 105.143 12.27 104.49 12.27C104.051 12.27 103.622 12.3423 103.202 12.487C102.782 12.6317 102.427 12.8253 102.138 13.068L101.578 12.06C101.961 11.752 102.418 11.5163 102.95 11.353C103.482 11.1897 104.047 11.108 104.644 11.108ZM104.336 17.646C104.849 17.646 105.293 17.5317 105.666 17.303C106.039 17.0743 106.31 16.75 106.478 16.33V15.294H104.406C103.267 15.294 102.698 15.6767 102.698 16.442C102.698 16.8153 102.843 17.1093 103.132 17.324C103.421 17.5387 103.823 17.646 104.336 17.646ZM110.314 8.21H111.658V18.598H110.314V8.21Z" fill="#71828A"/>
<path fill-rule="evenodd" clip-rule="evenodd" d="M60.7 36.48C59.5933 36.48 58.5233 36.33 57.49 36.03C56.4567 35.73 55.6267 35.34 55 34.86L56.1 32.42C56.7 32.86 57.4133 33.2133 58.24 33.48C59.0667 33.7467 59.8933 33.88 60.72 33.88C61.64 33.88 62.32 33.7433 62.76 33.47C63.2 33.1967 63.42 32.8333 63.42 32.38C63.42 32.0467 63.29 31.77 63.03 31.55C62.77 31.33 62.4367 31.1533 62.03 31.02C61.6233 30.8867 61.0733 30.74 60.38 30.58C59.3133 30.3267 58.44 30.0733 57.76 29.82C57.08 29.5667 56.4967 29.16 56.01 28.6C55.5233 28.04 55.28 27.2933 55.28 26.36C55.28 25.5467 55.5 24.81 55.94 24.15C56.38 23.49 57.0433 22.9667 57.93 22.58C58.8167 22.1933 59.9 22 61.18 22C62.0733 22 62.9467 22.1067 63.8 22.32C64.6533 22.5333 65.4 22.84 66.04 23.24L65.04 25.7C63.7467 24.9667 62.4533 24.6 61.16 24.6C60.2533 24.6 59.5833 24.7467 59.15 25.04C58.7167 25.3333 58.5 25.72 58.5 26.2C58.5 26.68 58.75 27.0367 59.25 27.27C59.75 27.5033 60.5133 27.7333 61.54 27.96C62.6067 28.2133 63.48 28.4667 64.16 28.72C64.84 28.9733 65.4233 29.3733 65.91 29.92C66.3967 30.4667 66.64 31.2067 66.64 32.14C66.64 32.94 66.4167 33.67 65.97 34.33C65.5233 34.99 64.8533 35.5133 63.96 35.9C63.0667 36.2867 61.98 36.48 60.7 36.48ZM72.98 25.32C74.6467 25.32 75.9267 25.7167 76.82 26.51C77.7133 27.3033 78.16 28.5 78.16 30.1V36.24H75.24V34.9C74.6533 35.9 73.56 36.4 71.96 36.4C71.1333 36.4 70.4167 36.26 69.81 35.98C69.2033 35.7 68.74 35.3133 68.42 34.82C68.1 34.3267 67.94 33.7667 67.94 33.14C67.94 32.14 68.3167 31.3533 69.07 30.78C69.8233 30.2067 70.9867 29.92 72.56 29.92H75.04C75.04 29.24 74.8333 28.7167 74.42 28.35C74.0067 27.9833 73.3867 27.8 72.56 27.8C71.9867 27.8 71.4233 27.89 70.87 28.07C70.3167 28.25 69.8467 28.4933 69.46 28.8L68.34 26.62C68.9267 26.2067 69.63 25.8867 70.45 25.66C71.27 25.4333 72.1133 25.32 72.98 25.32ZM72.74 34.3C73.2733 34.3 73.7467 34.1767 74.16 33.93C74.5733 33.6833 74.8667 33.32 75.04 32.84V31.74H72.9C71.62 31.74 70.98 32.16 70.98 33C70.98 33.4 71.1367 33.7167 71.45 33.95C71.7633 34.1833 72.1933 34.3 72.74 34.3ZM85.32 25.32C86.9867 25.32 88.2667 25.7167 89.16 26.51C90.0533 27.3033 90.5 28.5 90.5 30.1V36.24H87.58V34.9C86.9933 35.9 85.9 36.4 84.3 36.4C83.4733 36.4 82.7567 36.26 82.15 35.98C81.5433 35.7 81.08 35.3133 80.76 34.82C80.44 34.3267 80.28 33.7667 80.28 33.14C80.28 32.14 80.6567 31.3533 81.41 30.78C82.1633 30.2067 83.3267 29.92 84.9 29.92H87.38C87.38 29.24 87.1733 28.7167 86.76 28.35C86.3467 27.9833 85.7267 27.8 84.9 27.8C84.3267 27.8 83.7633 27.89 83.21 28.07C82.6567 28.25 82.1867 28.4933 81.8 28.8L80.68 26.62C81.2667 26.2067 81.97 25.8867 82.79 25.66C83.61 25.4333 84.4533 25.32 85.32 25.32ZM85.08 34.3C85.6133 34.3 86.0867 34.1767 86.5 33.93C86.9133 33.6833 87.2067 33.32 87.38 32.84V31.74H85.24C83.96 31.74 83.32 32.16 83.32 33C83.32 33.4 83.4767 33.7167 83.79 33.95C84.1033 34.1833 84.5333 34.3 85.08 34.3ZM98.14 36.48C97.0333 36.48 95.9633 36.33 94.93 36.03C93.8967 35.73 93.0667 35.34 92.44 34.86L93.54 32.42C94.14 32.86 94.8533 33.2133 95.68 33.48C96.5067 33.7467 97.3333 33.88 98.16 33.88C99.08 33.88 99.76 33.7433 100.2 33.47C100.64 33.1967 100.86 32.8333 100.86 32.38C100.86 32.0467 100.73 31.77 100.47 31.55C100.21 31.33 99.8767 31.1533 99.47 31.02C99.0633 30.8867 98.5133 30.74 97.82 30.58C96.7533 30.3267 95.88 30.0733 95.2 29.82C94.52 29.5667 93.9367 29.16 93.45 28.6C92.9633 28.04 92.72 27.2933 92.72 26.36C92.72 25.5467 92.94 24.81 93.38 24.15C93.82 23.49 94.4833 22.9667 95.37 22.58C96.2567 22.1933 97.34 22 98.62 22C99.5133 22 100.387 22.1067 101.24 22.32C102.093 22.5333 102.84 22.84 103.48 23.24L102.48 25.7C101.187 24.9667 99.8933 24.6 98.6 24.6C97.6933 24.6 97.0233 24.7467 96.59 25.04C96.1567 25.3333 95.94 25.72 95.94 26.2C95.94 26.68 96.19 27.0367 96.69 27.27C97.19 27.5033 97.9533 27.7333 98.98 27.96C100.047 28.2133 100.92 28.4667 101.6 28.72C102.28 28.9733 102.863 29.3733 103.35 29.92C103.837 30.4667 104.08 31.2067 104.08 32.14C104.08 32.94 103.857 33.67 103.41 34.33C102.963 34.99 102.293 35.5133 101.4 35.9C100.507 36.2867 99.42 36.48 98.14 36.48ZM118.02 22.24C119.26 22.24 120.337 22.4467 121.25 22.86C122.163 23.2733 122.867 23.86 123.36 24.62C123.853 25.38 124.1 26.28 124.1 27.32C124.1 28.3467 123.853 29.2433 123.36 30.01C122.867 30.7767 122.163 31.3633 121.25 31.77C120.337 32.1767 119.26 32.38 118.02 32.38H115.2V36.24H111.96V22.24H118.02ZM117.84 29.74C118.813 29.74 119.553 29.53 120.06 29.11C120.567 28.69 120.82 28.0933 120.82 27.32C120.82 26.5333 120.567 25.93 120.06 25.51C119.553 25.09 118.813 24.88 117.84 24.88H115.2V29.74H117.84ZM130.72 25.32C132.387 25.32 133.667 25.7167 134.56 26.51C135.453 27.3033 135.9 28.5 135.9 30.1V36.24H132.98V34.9C132.393 35.9 131.3 36.4 129.7 36.4C128.873 36.4 128.157 36.26 127.55 35.98C126.943 35.7 126.48 35.3133 126.16 34.82C125.84 34.3267 125.68 33.7667 125.68 33.14C125.68 32.14 126.057 31.3533 126.81 30.78C127.563 30.2067 128.727 29.92 130.3 29.92H132.78C132.78 29.24 132.573 28.7167 132.16 28.35C131.747 27.9833 131.127 27.8 130.3 27.8C129.727 27.8 129.163 27.89 128.61 28.07C128.057 28.25 127.587 28.4933 127.2 28.8L126.08 26.62C126.667 26.2067 127.37 25.8867 128.19 25.66C129.01 25.4333 129.853 25.32 130.72 25.32ZM130.48 34.3C131.013 34.3 131.487 34.1767 131.9 33.93C132.313 33.6833 132.607 33.32 132.78 32.84V31.74H130.64C129.36 31.74 128.72 32.16 128.72 33C128.72 33.4 128.877 33.7167 129.19 33.95C129.503 34.1833 129.933 34.3 130.48 34.3ZM143.06 25.32C144.727 25.32 146.007 25.7167 146.9 26.51C147.793 27.3033 148.24 28.5 148.24 30.1V36.24H145.32V34.9C144.733 35.9 143.64 36.4 142.04 36.4C141.213 36.4 140.497 36.26 139.89 35.98C139.283 35.7 138.82 35.3133 138.5 34.82C138.18 34.3267 138.02 33.7667 138.02 33.14C138.02 32.14 138.397 31.3533 139.15 30.78C139.903 30.2067 141.067 29.92 142.64 29.92H145.12C145.12 29.24 144.913 28.7167 144.5 28.35C144.087 27.9833 143.467 27.8 142.64 27.8C142.067 27.8 141.503 27.89 140.95 28.07C140.397 28.25 139.927 28.4933 139.54 28.8L138.42 26.62C139.007 26.2067 139.71 25.8867 140.53 25.66C141.35 25.4333 142.193 25.32 143.06 25.32ZM142.82 34.3C143.353 34.3 143.827 34.1767 144.24 33.93C144.653 33.6833 144.947 33.32 145.12 32.84V31.74H142.98C141.7 31.74 141.06 32.16 141.06 33C141.06 33.4 141.217 33.7167 141.53 33.95C141.843 34.1833 142.273 34.3 142.82 34.3ZM155.88 36.48C154.773 36.48 153.703 36.33 152.67 36.03C151.637 35.73 150.807 35.34 150.18 34.86L151.28 32.42C151.88 32.86 152.593 33.2133 153.42 33.48C154.247 33.7467 155.073 33.88 155.9 33.88C156.82 33.88 157.5 33.7433 157.94 33.47C158.38 33.1967 158.6 32.8333 158.6 32.38C158.6 32.0467 158.47 31.77 158.21 31.55C157.95 31.33 157.617 31.1533 157.21 31.02C156.803 30.8867 156.253 30.74 155.56 30.58C154.493 30.3267 153.62 30.0733 152.94 29.82C152.26 29.5667 151.677 29.16 151.19 28.6C150.703 28.04 150.46 27.2933 150.46 26.36C150.46 25.5467 150.68 24.81 151.12 24.15C151.56 23.49 152.223 22.9667 153.11 22.58C153.997 22.1933 155.08 22 156.36 22C157.253 22 158.127 22.1067 158.98 22.32C159.833 22.5333 160.58 22.84 161.22 23.24L160.22 25.7C158.927 24.9667 157.633 24.6 156.34 24.6C155.433 24.6 154.763 24.7467 154.33 25.04C153.897 25.3333 153.68 25.72 153.68 26.2C153.68 26.68 153.93 27.0367 154.43 27.27C154.93 27.5033 155.693 27.7333 156.72 27.96C157.787 28.2133 158.66 28.4667 159.34 28.72C160.02 28.9733 160.603 29.3733 161.09 29.92C161.577 30.4667 161.82 31.2067 161.82 32.14C161.82 32.94 161.597 33.67 161.15 34.33C160.703 34.99 160.033 35.5133 159.14 35.9C158.247 36.2867 157.16 36.48 155.88 36.48Z" fill="#1D262C"/>
<g filter="url(#filter0_d)">
<path fill-rule="evenodd" clip-rule="evenodd" d="M21.2501 26.9999C21.2501 24.9321 22.932 23.2514 25.0001 23.2514L28.7501 23.2499V26.9999C28.7501 29.068 27.0679 30.7499 25.0001 30.7499C22.932 30.7499 21.2501 29.068 21.2501 26.9999ZM34.9999 13.2501C37.068 13.2501 38.7499 14.932 38.7499 17.0001C38.7499 19.0679 37.068 20.7501 34.9999 20.7501H31.2499V17.0001C31.2499 14.9324 32.9321 13.2501 34.9999 13.2501ZM42.4999 7C43.8746 7 45 8.12537 45 9.50012V34.4999C45 35.8746 43.8746 37 42.4999 37H17.5001C16.1254 37 15 35.8746 15 34.5002V9.50012C15 8.12537 16.1254 7 17.5001 7H42.4999ZM34.9999 23.2499C38.4457 23.2499 41.25 20.446 41.25 17.0001C41.25 13.5539 38.4457 10.75 34.9999 10.75C31.554 10.75 28.7501 13.5539 28.7501 17.0001V20.7501H25.0001C21.5542 20.7501 18.75 23.554 18.75 26.9999C18.75 30.4457 21.5542 33.25 25.0001 33.25C28.446 33.25 31.2499 30.4457 31.2499 26.9999V23.2499H34.9999Z" fill="#0074E4"/>
</g>
<defs>
<filter id="filter0_d" x="0" y="0" width="60" height="60" filterUnits="userSpaceOnUse" color-interpolation-filters="sRGB">
<feFlood flood-opacity="0" result="BackgroundImageFix"/>
<feColorMatrix in="SourceAlpha" type="matrix" values="0 0 0 0 0 0 0 0 0 0 0 0 0 0 0 0 0 0 127 0"/>
<feOffset dy="8"/>
<feGaussianBlur stdDeviation="7.5"/>
<feColorMatrix type="matrix" values="0 0 0 0 0.137255 0 0 0 0 0.105882 0 0 0 0 0.458824 0 0 0 0.1 0"/>
<feBlend mode="normal" in2="BackgroundImageFix" result="effect1_dropShadow"/>
<feBlend mode="normal" in="SourceGraphic" in2="effect1_dropShadow" result="shape"/>
</filter>
</defs>
</svg>
